<?xml version="1.0" encoding="utf-8"?>
<!-- Generator: Adobe Illustrator 17.0.0, SVG Export Plug-In . SVG Version: 6.00 Build 0)  -->
<!DOCTYPE svg PUBLIC "-//W3C//DTD SVG 1.1//EN" "http://www.w3.org/Graphics/SVG/1.1/DTD/svg11.dtd">
<svg version="1.1" id="Layer_1" xmlns="http://www.w3.org/2000/svg" xmlns:xlink="http://www.w3.org/1999/xlink" x="0px" y="0px"
	 width="677.966px" height="158.992px" viewBox="0 0 677.966 158.992" enable-background="new 0 0 677.966 158.992"
	 xml:space="preserve">
<g id="XMLID_50_">
	<g id="XMLID_27_">
		<g id="XMLID_232_">
			<path id="XMLID_249_" d="M310.348,51.532c1.712-1.422,3.25-2.696,4.966-3.73c7.384-4.449,16.753-4.053,22.933,0.97
				c1.468,1.193,2.672,2.616,3.641,4.228c0.597,0.993,1.064,0.947,1.753,0.066c4.119-5.272,9.642-7.954,16.229-8.298
				c8.99-0.469,17.947,4.609,19.148,15.092c0.388,3.386,0.653,6.769,0.648,10.177c-0.012,9.414-0.037,18.827,0.021,28.24
				c0.011,1.865-0.573,2.655-2.533,2.579c-3.133-0.121-6.278-0.121-9.411,0c-1.981,0.076-2.525-0.762-2.512-2.605
				c0.058-8.412,0.033-16.824,0.016-25.236c-0.006-2.735,0.007-5.47-0.577-8.172c-1.449-6.702-7.796-9.372-13.667-5.705
				c-4.021,2.511-5.367,6.441-5.717,10.892c-0.732,9.333-0.191,18.682-0.349,28.022c-0.046,2.742-0.034,2.765-2.815,2.772
				c-3.004,0.008-6.012-0.08-9.012,0.031c-1.843,0.068-2.442-0.617-2.426-2.438c0.07-8.144,0.013-16.29,0.038-24.435
				c0.008-2.608-0.116-5.202-0.48-7.784c-0.661-4.69-3.137-7.661-7.039-8.459c-3.976-0.813-8.5,1.366-10.692,5.129
				c-2.103,3.61-2.339,7.642-2.409,11.634c-0.137,7.876-0.042,15.755-0.052,23.633c-0.003,2.629-0.056,2.679-2.699,2.688
				c-3.071,0.01-6.144-0.056-9.213,0.025c-1.612,0.042-2.273-0.507-2.269-2.182c0.036-16.757,0.039-33.515-0.004-50.272
				c-0.005-1.775,0.679-2.323,2.379-2.271c3.135,0.097,6.278,0.108,9.412-0.003c1.821-0.064,2.579,0.556,2.423,2.41
				C310.007,49.425,309.873,50.374,310.348,51.532z"/>
			<path id="XMLID_246_" d="M488.525,96.106c-0.957,0.011-1.326,0.539-1.777,0.899c-8.877,7.093-20.487,7.135-29.614,0.314
				c-15.151-11.323-14.655-36.164-0.685-47.146c8.949-7.035,21.486-7.005,30.315,0.29c0.439,0.363,0.814,1.149,1.433,0.881
				c0.63-0.273,0.314-1.082,0.315-1.648c0.02-7.274,0.07-14.55-0.024-21.823c-0.025-1.94,0.628-2.595,2.53-2.524
				c3.066,0.113,6.14,0.076,9.208,0.014c1.568-0.032,2.263,0.445,2.26,2.167c-0.043,23.759-0.039,47.518-0.007,71.277
				c0.002,1.537-0.494,2.159-2.074,2.119c-3.135-0.079-6.277-0.117-9.408,0.014c-1.933,0.08-2.713-0.6-2.484-2.519
				C488.597,97.701,488.525,96.965,488.525,96.106z M488.993,73.568c0.004-8.982-5.679-15.286-14.041-15.576
				c-9.301-0.322-16.18,7.742-14.899,17.467c1.088,8.263,6.6,13.792,13.919,13.962C482.805,89.626,488.989,83.099,488.993,73.568z"
				/>
			<path id="XMLID_243_" d="M419.347,77.978c-6.476,0.002-12.951-0.008-19.427,0.007c-2.169,0.005-2.36,0.299-1.675,2.331
				c1.836,5.446,6.618,9.097,12.421,9.536c5.084,0.384,9.709-0.58,13.391-4.412c0.668-0.695,1.494-0.793,2.386-0.791
				c3.605,0.01,7.21-0.012,10.815,0.009c2.135,0.012,2.396,0.419,1.385,2.33c-4.297,8.123-10.916,13.271-19.995,14.819
				c-11.831,2.017-21.948-0.989-29.49-10.856c-10.706-14.006-5.05-42.422,19.189-45.657c14.428-1.926,26.724,5.098,31.454,18.109
				c1.458,4.009,1.822,8.175,1.696,12.419c-0.049,1.653-0.722,2.191-2.323,2.178C432.566,77.944,425.956,77.977,419.347,77.978z
				 M412.528,66.614c4.064,0,8.127,0.009,12.191-0.004c2.211-0.007,2.328-0.241,1.203-2.229c-3.141-5.552-9.425-8.267-16.298-7.061
				c-4.529,0.795-8.051,3.056-10.318,7.104c-1.136,2.028-1.023,2.184,1.231,2.188C404.534,66.619,408.531,66.614,412.528,66.614z"/>
			<path id="XMLID_240_" d="M597.432,44.953c14.482-0.062,28.923,11.073,29.002,28.82c0.072,15.962-12.96,28.623-28.98,28.632
				c-15.816,0.009-28.398-12.766-28.376-28.81C569.101,57.667,581.689,44.951,597.432,44.953z M612.081,73.667
				c0.459-9.764-7.604-17.971-19.001-14.697c-6.439,1.849-9.478,6.886-9.964,13.378c-0.816,10.897,7.175,19.079,18.653,16.258
				C608.15,87.037,612.076,81.114,612.081,73.667z"/>
			<path id="XMLID_237_" d="M564.567,73.71c-0.028,16.137-12.744,28.694-28.981,28.704c-16.069,0.01-28.697-13.998-28.306-28.959
				c0.415-15.894,12.756-28.536,28.555-28.502C551.857,44.988,564.594,57.736,564.567,73.71z M550.356,73.799
				c0.046-11.037-8.648-17.909-18.897-14.939c-5.788,1.678-9.618,6.666-10.054,13.956c-0.654,10.929,7.523,18.449,18.509,15.823
				C546.321,87.108,550.325,81.208,550.356,73.799z"/>
			<path id="XMLID_236_" d="M251.949,71.438c0,9.08-0.048,18.161,0.038,27.24c0.018,1.957-0.664,2.58-2.549,2.515
				c-3.134-0.108-6.275-0.02-9.413-0.032c-2.639-0.01-2.707-0.076-2.708-2.687c-0.004-17.693,0.005-35.386-0.008-53.079
				c-0.003-4.302,0.462-3.774-3.897-3.799c-3.872-0.022-7.746-0.054-11.617,0.016c-1.562,0.028-2.147-0.559-2.113-2.108
				c0.067-3.137,0.011-6.276,0.019-9.414c0.007-2.642,0.07-2.715,2.683-2.717c11.684-0.007,23.368-0.004,35.052-0.003
				c3.338,0,6.677,0.046,10.015-0.016c1.547-0.029,2.15,0.567,2.118,2.123c-0.07,3.337-0.066,6.677-0.002,10.014
				c0.029,1.535-0.529,2.147-2.104,2.121c-4.205-0.069-8.412-0.023-12.618-0.021c-2.889,0.002-2.893,0.004-2.894,2.806
				C251.948,53.411,251.949,62.425,251.949,71.438z"/>
			<path id="XMLID_235_" d="M643.082,51.654c0.808-0.184,0.927-0.772,1.223-1.169c3.593-4.819,8.503-6.104,14.196-5.354
				c1.622,0.214,2.243,1.071,2.188,2.714c-0.097,2.933-0.073,5.873-0.018,8.808c0.028,1.472-0.314,2.019-1.964,1.628
				c-5.53-1.313-10.093,1.112-12.238,6.389c-0.912,2.243-1.397,4.6-1.409,7.024c-0.044,8.876-0.053,17.751-0.082,26.627
				c-0.009,2.717-0.132,2.842-2.804,2.853c-3.003,0.012-6.008-0.054-9.009,0.024c-1.659,0.043-2.381-0.45-2.375-2.267
				c0.054-16.684,0.057-33.368-0.003-50.052c-0.007-1.887,0.674-2.45,2.455-2.371c2.464,0.109,4.943,0.134,7.405-0.006
				c1.983-0.113,2.651,0.691,2.449,2.56C643.007,49.896,643.082,50.75,643.082,51.654z"/>
			<path id="XMLID_234_" d="M289.932,73.706c0,8.282,0.008,16.563-0.004,24.845c-0.004,2.426-0.185,2.597-2.644,2.609
				c-3.206,0.016-6.412-0.019-9.617,0.006c-1.316,0.01-1.924-0.482-1.921-1.889c0.028-16.964,0.028-33.927,0.004-50.891
				c-0.002-1.385,0.553-1.897,1.91-1.878c3.339,0.047,6.681,0.092,10.017-0.02c1.814-0.061,2.289,0.706,2.279,2.374
				C289.904,57.142,289.931,65.424,289.932,73.706z"/>
			<path id="XMLID_233_" d="M291.641,33.286c-0.003,5.038-3.88,9.034-8.763,9.033c-4.96-0.001-9.108-4.285-9.039-9.335
				c0.066-4.842,4.223-8.88,9.084-8.822C287.765,24.219,291.644,28.279,291.641,33.286z"/>
		</g>
	</g>
	<g id="XMLID_26_">
		<path id="XMLID_2_" fill="#6DDA5F" d="M334.412,119.045c-5.271,0.248-9.266,4.16-9.266,9.264c0,5.024,4.572,8.894,9.266,9.264
			c2.058,0,4.2-0.782,5.763-2.059c0.742-0.576,1.36-0.947,2.347-0.947c1.812,0,3.253,1.4,3.253,3.253
			c0,1.483-0.947,2.347-1.565,2.882c-0.535,0.494-3.83,3.377-9.841,3.377c-8.688,0-15.729-7.083-15.729-15.771
			c0-8.729,7.041-15.77,15.729-15.77c6.011,0,9.264,2.882,9.841,3.376c0.618,0.535,1.565,1.4,1.565,2.923
			c0,1.812-1.441,3.212-3.253,3.212c-0.947,0-1.647-0.288-2.347-0.947C338.612,119.869,336.511,119.086,334.412,119.045z"/>
		<path id="XMLID_4_" fill="#6DDA5F" d="M361.879,122.833c5.847,0,10.581,4.736,10.581,10.583c0,5.929-4.735,10.665-10.581,10.665
			c-5.93,0-10.665-4.736-10.665-10.665C351.214,127.568,355.949,122.833,361.879,122.833z M361.879,137.903
			c2.429,0,4.406-1.977,4.406-4.488c0-2.429-1.977-4.406-4.406-4.406c-2.513,0-4.448,1.977-4.448,4.406
			C357.431,135.927,359.366,137.903,361.879,137.903z"/>
		<path id="XMLID_7_" fill="#6DDA5F" d="M398.693,140.291c0,2.141-1.236,3.624-3.129,3.624c-0.988,0-1.812-0.411-2.347-1.111
			c-1.441,0.741-3.212,1.277-5.23,1.277c-5.847,0-10.623-4.736-10.623-10.583c0-5.847,4.776-10.623,10.623-10.623
			c1.689,0,3.171,0.37,4.53,1.029v-5.477c0-2.511,1.359-3.664,3.047-3.664c2.181,0,3.129,1.399,3.129,3.664V140.291z
			 M387.986,138.027c2.553,0,4.488-1.977,4.488-4.53c0-2.594-1.935-4.53-4.488-4.53c-2.511,0-4.488,1.936-4.488,4.53
			C383.498,136.051,385.475,138.027,387.986,138.027z"/>
		<path id="XMLID_10_" fill="#6DDA5F" d="M408.247,115.751c1.647,0,3.088,1.441,3.088,3.088c0,1.689-1.441,3.089-3.088,3.089
			c-1.689,0-3.088-1.4-3.088-3.089C405.159,117.192,406.558,115.751,408.247,115.751z M405.159,127.939
			c0-3.294,0.947-4.858,3.088-4.858c1.689,0,3.047,1.153,3.047,3.706v12.312c0,3.294-0.947,4.817-3.047,4.817
			c-1.729,0-3.088-1.111-3.088-3.624V127.939z"/>
		<path id="XMLID_13_" fill="#6DDA5F" d="M418.005,126.332c0-2.388,1.4-3.5,3.129-3.5c0.865,0,1.565,0.33,2.141,0.988
			c1.194-0.741,2.635-0.988,3.954-0.988c5.805,0,9.223,3.335,9.223,9.142v8.276c0,2.553-1.359,3.624-3.047,3.624
			c-1.769,0-3.128-1.071-3.128-3.624v-8.194c0-1.565-1.36-3.047-3.047-3.047c-1.606,0-2.965,1.235-3.089,2.841v8.4
			c0,2.429-1.399,3.664-3.006,3.664c-1.811,0-3.047-0.947-3.129-3.624V126.332z"/>
		<path id="XMLID_15_" fill="#6DDA5F" d="M446.584,145.069c1.771,0,3.129,2.346,5.765,2.346c2.389,0,4.364-2.058,4.9-4.24
			c0-0.082-0.042-0.082-0.042-0.082c-1.277,0.617-2.758,0.947-4.364,0.947c-5.847,0-10.623-4.735-10.623-10.583
			c0-5.847,4.776-10.623,10.623-10.623c1.977,0,3.788,0.576,5.229,1.318c0.536-0.742,1.359-1.153,2.389-1.153
			c1.729,0,3.088,1.481,3.088,3.622v14.618c0,6.464-4.776,11.776-11.364,11.776c-3.377,0-8.4-2.099-8.4-5.188
			C443.784,146.344,445.019,145.069,446.584,145.069z M452.843,137.986c2.553,0,4.488-1.977,4.488-4.53
			c0-2.594-1.935-4.529-4.488-4.529c-2.511,0-4.488,1.935-4.488,4.529C448.355,136.009,450.331,137.986,452.843,137.986z"/>
		<path id="XMLID_18_" fill="#6DDA5F" d="M498.182,114.268c0.082,0.206-0.082-0.288,9.635,27.259
			c0.042,0.164,0.082,0.329,0.082,0.535c0,0.948-0.782,1.895-1.977,1.895c-0.699,0-1.359-0.452-1.605-1.153l-1.977-5.683
			c-0.04-0.164-0.164-0.288-0.37-0.288H490.77c-0.206,0-0.372,0.082-0.412,0.288l-1.935,5.683c-0.248,0.7-0.906,1.111-1.647,1.153
			c-1.194,0-1.936-0.947-1.936-1.895c0-0.206,0.042-0.37,0.083-0.535l9.593-27.259c0.206-0.658,0.782-1.483,1.853-1.483
			S497.894,113.61,498.182,114.268z M491.841,132.797c-0.042,0.042-0.042,0.082-0.042,0.124c0,0.124,0.082,0.206,0.206,0.206h8.688
			c0.124,0,0.288-0.082,0.288-0.206c0-0.042-0.042-0.082-0.042-0.124l-4.488-13.094c0-0.082-0.04-0.123-0.082-0.123
			c-0.04,0-0.04,0.04-0.082,0.123L491.841,132.797z"/>
		<path id="XMLID_21_" fill="#6DDA5F" d="M528.983,137.079c0.33-0.658,0.948-1.235,1.689-1.235c0.906,0,1.771,0.865,1.771,1.771
			c0,0.206-0.042,0.412-0.124,0.618c-1.605,3.582-5.271,5.847-9.429,5.847c-5.929,0-10.665-4.736-10.665-10.665
			c0-5.847,4.736-10.583,10.665-10.583c3.458,0,6.423,1.895,8.522,4.324c0.288,0.37,0.536,0.782,0.536,1.235
			c0,0.906-0.865,1.771-1.771,1.771c-0.618,0-1.194-0.37-1.523-0.905c-1.194-1.812-3.377-2.925-5.765-2.925
			c-3.994,0-7.123,3.129-7.123,7.083c0,3.994,3.129,7.123,7.123,7.123C525.484,140.539,527.995,139.22,528.983,137.079z"/>
		<path id="XMLID_23_" fill="#6DDA5F" d="M555.544,124.685c0-0.905,0.824-1.687,1.771-1.687c0.865,0,1.729,0.782,1.729,1.687v17.542
			c0,0.905-0.865,1.687-1.729,1.687c-0.947,0-1.771-0.782-1.771-1.687v-0.866c-1.893,1.689-4.364,2.719-7.082,2.719
			c-5.929,0-10.665-4.736-10.665-10.665c0-5.847,4.736-10.583,10.665-10.583c2.717,0,5.188,1.03,7.082,2.717V124.685z
			 M548.463,140.539c3.952,0,7.082-3.129,7.082-7.123c0-3.954-3.129-7.083-7.082-7.083c-3.994,0-7.123,3.129-7.123,7.083
			C541.339,137.409,544.469,140.539,548.463,140.539z"/>
		<path id="XMLID_32_" fill="#6DDA5F" d="M581.487,141.362c-1.853,1.689-4.364,2.719-7.083,2.719
			c-5.929,0-10.664-4.736-10.664-10.665c0-5.847,4.735-10.583,10.664-10.583c2.719,0,5.23,1.03,7.083,2.717v-9.1
			c0-0.905,0.824-1.687,1.771-1.687c0.865,0,1.729,0.782,1.729,1.687v25.777c0,0.905-0.865,1.687-1.729,1.687
			c-0.947,0-1.771-0.782-1.771-1.687V141.362z M574.404,140.539c3.954,0,7.083-3.129,7.083-7.123c0-3.954-3.129-7.083-7.083-7.083
			c-3.994,0-7.123,3.129-7.123,7.083C567.281,137.409,570.411,140.539,574.404,140.539z"/>
		<path id="XMLID_35_" fill="#6DDA5F" d="M590.342,133.415c0-5.847,4.735-10.583,10.665-10.583c5.683,0,10.499,4.612,10.581,10.006
			c0,1.029-0.782,1.811-1.647,1.893h-15.976c0.618,3.377,3.5,5.806,7.041,5.806c1.853,0,3.624-0.576,4.817-1.853
			c0.372-0.37,0.866-0.7,1.4-0.7c0.947,0,1.771,0.824,1.771,1.771c0,0.494-0.248,0.988-0.618,1.317
			c-1.893,1.895-4.529,3.007-7.37,3.007C595.077,144.08,590.342,139.344,590.342,133.415z M594.048,131.851h13.876
			c-0.7-3.171-3.5-5.518-6.917-5.518C597.548,126.332,594.748,128.679,594.048,131.851z"/>
		<path id="XMLID_38_" fill="#6DDA5F" d="M632.303,131.768c0-2.923-2.553-5.477-5.477-5.477c-2.841,0-5.477,1.071-5.477,5.188
			v10.747c0,0.905-0.865,1.687-1.729,1.687c-0.947,0-1.771-0.782-1.771-1.687v-17.542c0-0.905,0.824-1.687,1.771-1.687
			c0.823,0,1.689,0.741,1.729,1.605c1.483-1.153,3.376-1.771,5.435-1.771c2.883,0,5.559,1.318,7.247,3.459
			c1.647-2.141,4.324-3.459,7.206-3.459c4.776,0,9.018,3.748,9.018,8.442v10.953c0,0.905-0.865,1.687-1.729,1.687
			c-0.948,0-1.771-0.782-1.771-1.687v-10.459c0-2.923-2.553-5.477-5.477-5.477c-2.799,0-5.559,2.265-5.559,5.064v10.871
			c0,0.987-0.824,1.687-1.647,1.687c-0.948,0-1.771-0.782-1.771-1.687V131.768z"/>
		<path id="XMLID_40_" fill="#6DDA5F" d="M660.883,151.286c-0.124,0.658-0.782,1.111-1.483,1.111c-0.206,0-0.412-0.04-0.618-0.123
			c-0.741-0.206-1.153-0.988-1.153-1.73c0-0.123,0.04-0.329,0.082-0.452l2.347-6.505l-6.341-18.365
			c-0.042-0.164-0.082-0.33-0.082-0.494c0-0.7,0.494-1.441,1.277-1.689c0.164-0.04,0.329-0.082,0.494-0.082
			c0.7,0,1.399,0.452,1.523,1.112l4.941,14.411l4.982-14.411c0.124-0.66,0.824-1.112,1.524-1.112c0.164,0,0.329,0.042,0.494,0.082
			c0.823,0.248,1.235,0.988,1.235,1.729c0,0.166,0,0.289-0.042,0.454L660.883,151.286z"/>
	</g>
	<g id="XMLID_192_">
		<path id="XMLID_193_" fill="#231916" d="M119.604,74.134c0,2.879,1.687,5.209,3.763,5.209c2.079,0,3.762-2.33,3.762-5.209
			c0-2.879-1.683-5.22-3.762-5.22C121.291,68.914,119.604,71.255,119.604,74.134"/>
	</g>
	<g id="XMLID_187_">
		<path id="XMLID_121_" fill="#231916" d="M123.367,80.232c-2.565,0-4.651-2.735-4.651-6.098c0-3.368,2.086-6.108,4.651-6.108
			c2.564,0,4.651,2.741,4.651,6.108C128.018,77.553,125.975,80.232,123.367,80.232z M123.367,69.803
			c-1.558,0-2.874,1.984-2.874,4.331c0,2.342,1.316,4.321,2.874,4.321c1.558,0,2.873-1.979,2.873-4.321
			C126.24,71.787,124.925,69.803,123.367,69.803z"/>
	</g>
	<g id="XMLID_108_">
		<path id="XMLID_109_" fill="#231916" d="M123.367,80.232c-2.565,0-4.651-2.735-4.651-6.098c0-3.368,2.086-6.108,4.651-6.108
			c2.564,0,4.651,2.741,4.651,6.108C128.018,77.553,125.975,80.232,123.367,80.232z M123.367,69.803
			c-1.558,0-2.874,1.984-2.874,4.331c0,2.342,1.316,4.321,2.874,4.321c1.558,0,2.873-1.979,2.873-4.321
			C126.24,71.787,124.925,69.803,123.367,69.803z"/>
	</g>
	<g id="XMLID_77_">
		<path id="XMLID_78_" fill="#231916" d="M119.604,74.134c0,2.879,1.687,5.209,3.763,5.209c2.079,0,3.762-2.33,3.762-5.209
			c0-2.879-1.683-5.22-3.762-5.22C121.291,68.914,119.604,71.255,119.604,74.134"/>
	</g>
	<path id="XMLID_28_" fill="none" d="M163.067,48.623l10.649-5.23c-2.416-0.644-5.016-1.215-7.79-1.697l-7.777,2.538l-1.456-0.247
		c-1.716-0.262-2.656-0.433-4.656-0.594v7.218c0,0.077,1.493,0.164,2.282,0.258l9.78-2.066L163.067,48.623z"/>
	<path id="XMLID_46_" fill="#231916" d="M174.098,48.128c0.809-0.573,1.533-1.094,1.827-1.319c0-1.04-0.071-1.283-0.131-1.283
		c0.006-0.02,0.013-0.183,0.021-0.403l-3.04,2.302C173.261,47.654,173.687,47.889,174.098,48.128z"/>
	<path id="XMLID_45_" fill="#231916" d="M181.559,55.661l4.691-1.757l-6.93,1.564l4.315,4.123c-0.31-1.048-0.782-2.053-1.429-2.992
		L181.559,55.661z"/>
	<polygon id="XMLID_31_" fill="none" points="33.748,105.976 32.59,106.722 34.47,106.281 	"/>
	<path id="XMLID_48_" fill="none" d="M187.596,74.297c0.218-0.219,0.443-0.438,0.653-0.657l-3.718-0.381l-0.997,1.792
		L187.596,74.297z"/>
	<path id="XMLID_52_" fill="#231916" d="M172.047,79.151l10.908-0.739c1.712-1.35,3.257-2.727,4.641-4.115l-4.062,0.754l0.997-1.792
		l-5.244-0.537l0.996-1.268c1.144-1.458,2.043-2.921,2.672-4.351l0.183-0.417l7.909-1.677l-9.046,0.343l-4.436,10.305l3.775-0.349
		l-10.728,1.265l0.809,1.855l-1.841-1.577c-1.738,1.272-3.747,4.229-4.317,6.743c2.363-1.388,4.577-2.829,6.576-4.292
		L172.047,79.151z"/>
	<path id="XMLID_53_" fill="#231916" d="M30.832,99.401l0.291,0.159c1.744,0.953,3.736,1.823,5.92,2.587l1.717,0.601l-5.012,3.228
		l0.722,0.305l-1.88,0.44l-0.467,0.301c2.643,0.739,5.544,1.385,8.656,1.928l8.355-3.191l-2.503-2.326l-9.753,2.283
		c1.93-0.911,4.891-2.383,4.285-4.192c-0.423-1.263-5.95-3.594-9.064-4.857l-0.009-0.09l-0.151,0.026
		c-1.06-0.424-1.809-0.721-1.928-0.784l-0.171,1.118l-13.92,1.875c1.063,1.043,2.34,2.049,3.834,3.001L30.832,99.401z"/>
	<path id="XMLID_55_" fill="#231916" d="M71.342,110.85l6.601-4.344l0.246-0.01c3.664-0.155,7.464-0.425,11.295-0.8l0.647-0.063
		l1.61,3.761c4.927-0.568,9.949-1.295,14.94-2.162l2.609-4.366l0.393-0.074c4.003-0.755,7.872-1.584,11.5-2.463l0.295-0.072
		l5.754,2.578c4.38-1.125,8.753-2.394,13.04-3.761c-5.181-0.767-19.34-2.624-25.995-1.021c-5.907,1.423-15.602,7.198-20.6,10.338
		c1.311-3.173-0.404-8.064-27.851-4.086c-1.761,0.253-3.305,1.214-4.595,2.379l-2.587,4.095
		C62.722,110.943,66.985,110.965,71.342,110.85z"/>
	<path id="XMLID_56_" fill="#231916" d="M139.245,95.133l0.94-0.324c3.417-1.178,6.764-2.442,9.945-3.759l0.211-0.087l9.013,0.987
		c3.482-1.527,6.819-3.141,9.945-4.809l-4.163-1.785c0.025,0.213,0.063,0.419,0.126,0.611l-5.459-0.968l-21.446,9.318l2.366,4.62
		c0.096-0.031,0.194-0.058,0.29-0.089L139.245,95.133z"/>
	<path id="XMLID_57_" fill="#231916" d="M182.623,71.277l2.849,0.292l0.496-0.892l8.088-1.409c0.237-0.699,0.418-2.085,0.545-3.196
		l-10.209,2.166C183.917,69.245,183.325,70.263,182.623,71.277z"/>
	<path id="XMLID_61_" fill="#FFFFFF" d="M90.443,110.877l0.185,0.431l0.182-0.02l-0.172-0.434
		C90.574,110.861,90.506,110.87,90.443,110.877z"/>
	<polygon id="XMLID_44_" fill="none" points="194.607,60.156 183.974,60.932 194.607,60.157 	"/>
	<path id="XMLID_201_" fill="#231916" d="M145.358,82.8c-0.347,0.134-0.708,0.24-1.055,0.387c0.334-0.134,0.654-0.267,0.975-0.401
		c0.013-0.013,0.04-0.027,0.053-0.027C145.344,82.774,145.358,82.787,145.358,82.8z"/>
	<path id="XMLID_106_" fill="#FFFFFF" d="M183.804,60.189c-0.046-0.202-0.109-0.4-0.168-0.599l0,0
		C183.694,59.789,183.757,59.987,183.804,60.189z"/>
	<path id="XMLID_99_" fill="#231916" d="M150.198,96.693l9.907,1.35c4.223-1.862,7.07-2.794,10.657-4.8l0.492-5.13
		c-3.544,1.936-7.376,3.807-11.392,5.561l-0.224,0.095l-8.82-0.99c-0.325,0.134-0.784,0.262-0.784,0.395v3.67
		C150.035,96.791,150.065,96.748,150.198,96.693z"/>
	<g id="XMLID_1_">
		<path id="XMLID_49_" fill="#231916" d="M34.774,103.202c-1.511-0.592-2.92-1.236-4.21-1.924l-11.138,2.425l-0.306-0.19
			c-1.998-1.241-3.655-2.584-4.98-3.994l0.986,4.472c2.509,2.216-1.046-0.828,3.328,2.664l11.135-2.437l2.177,0.92L34.774,103.202z"
			/>
		<path id="XMLID_66_" fill="#231916" d="M58.308,107.984c-2.658-0.209-5.259-0.499-7.754-0.864l-9.596,3.666l-0.24-0.042
			c-3.841-0.662-7.367-1.484-10.513-2.436l0.628,3.188c3.236,1.019,6.843,1.865,10.745,2.543l9.236-3.437l5.577,0.418
			L58.308,107.984z"/>
		<path id="XMLID_67_" fill="#231916" d="M56.653,112.466l0.963,3.943c4.567,0.23,9.388,0.281,14.398,0.142l6.541-4.352
			c3.151-0.137,8.12-0.88,11.887-1.323l-1.434-3.351c-3.558,0.338-7.086,0.585-10.499,0.734l-6.613,4.352l-0.253,0.008
			c-1.908,0.053-3.8,0.08-5.666,0.08c-3.06,0-6.053-0.072-8.947-0.215L56.653,112.466z"/>
		<path id="XMLID_68_" fill="#231916" d="M141.919,96.163l1.317,2.994l0.305,0.753l-0.988,0.314
			c-0.109,0.036-0.234,0.066-0.343,0.102c-2.401,0.782-4.84,1.531-7.287,2.243c-2.504,0.729-5.026,1.42-7.547,2.064l-0.303,0.077
			l-5.767-2.584c-3.452,0.831-7.116,1.616-10.901,2.335l-2.618,4.379l-0.4,0.07c-5.381,0.942-10.799,1.724-16.104,2.322
			l-0.475,0.053l1.868,4.704l14.871-1.994l2.87-4.292c3.899-0.743,6.057-1.402,9.766-2.306l6.85,2.306
			c2.691-0.694,5.001-1.419,8.001-2.199v17.961l-84.131,17.051h2.831h96.3V96.844v-3.67
			C147.035,94.21,144.622,95.216,141.919,96.163z"/>
	</g>
	<path id="XMLID_54_" fill="#231916" d="M182.958,67.098l0.187-0.414l10.976-2.323l0.481-4.206l-10.628,0.774l-0.174-0.734
		c-0.04-0.214-0.107-0.401-0.16-0.601c-0.307-1.055-0.788-2.056-1.429-2.991l-0.654-0.948l9.52-3.565
		c-1.108-1.135-2.484-2.23-4.099-3.258l-11.082,2.417l-0.28-0.16c-0.574-0.307-1.055-0.614-1.522-0.895
		c-1.028-0.641-1.923-1.175-3.378-1.696l-1.549-0.547l5.648-4.273c-2.697-0.761-5.635-1.429-8.812-1.976l-7.704,2.537l-1.602-0.254
		c-1.722-0.254-2.659-0.427-4.659-0.588v7.21c16,1.469,19.307,5.888,19.307,12.978c0,0.3,0.037,0.6-0.007,0.897
		c-0.075,0.508-0.181,1.006-0.362,1.487c-0.197,0.522-0.433,1.024-0.72,1.503c-0.317,0.531-0.671,1.035-1.06,1.515
		c-0.432,0.534-0.896,1.04-1.386,1.522c-0.543,0.535-1.112,1.041-1.7,1.525c-0.648,0.533-1.318,1.039-2.003,1.523
		c-0.749,0.53-1.516,1.034-2.296,1.517c-0.846,0.525-1.707,1.025-2.578,1.507c-0.939,0.518-1.89,1.014-2.85,1.491
		c-1.028,0.511-2.066,1-3.112,1.472c-1.113,0.502-2.235,0.983-3.364,1.447c-1.184,0.487-2.362,0.935-3.559,1.331l-11.431,3.882
		c-8.038,2.403-17.144,4.567-27.012,6.369c-37.747,6.916-69.272,5.461-73.317-3.365c-1.055-2.283-1.028-4.753,0.04-7.317
		c2.55-6.049,11.256-12.404,22.779-16.637l0.174-6.863c-0.481,0.187-0.868,0.334-1.215,0.467c-0.654,0.254-1.108,0.427-1.616,0.641
		l-0.214,0.093l-7.17-0.895c-3.525,1.549-6.903,3.191-10.081,4.887l4.687,2.417l-1.188,0.841c-2.016,1.429-3.578,2.67-4.727,3.578
		c-0.467,0.374-0.855,0.681-1.148,0.908l-0.214,0.16l-10.922,0.748c-1.989,1.576-3.765,3.164-5.288,4.767l8.959,0.921l-1.001,1.268
		c-1.148,1.469-2.056,2.924-2.67,4.353l-0.187,0.414l-11.096,2.35c-0.427,1.415-0.628,2.831-0.561,4.206l10.829-0.801l0.16,0.748
		c0.294,1.255,0.828,2.457,1.602,3.578l0.654,0.948l-9.52,3.565c1.108,1.135,2.484,2.23,4.099,3.258l11.082-2.417l0.294,0.16
		c1.736,0.961,3.725,1.829,5.915,2.59l1.722,0.601l-6.649,4.273c2.644,0.734,5.555,1.389,8.666,1.923l9.574-3.632l0.227,0.027
		c2.978,0.441,6.115,0.788,9.32,1.001l1.495,0.134l-2.751,4.406c4.072,0.174,8.332,0.089,12.698-0.018l6.596-4.344h0.254
		c3.659,0,7.464-0.436,11.283-0.81l0.654-0.185l1.602,3.82c4.927-0.574,9.961-1.268,14.941-2.136l2.617-4.353l0.387-0.073
		c4.006-0.748,7.878-1.572,11.496-2.453l0.307-0.078l5.755,2.578c2.564-0.659,5.126-1.373,7.678-2.118
		c2.046-0.598,4.087-1.212,6.102-1.86l-1.776-3.712l0.948-0.334c3.236-1.112,6.389-2.301,9.413-3.546
		c0.171-0.07,0.351-0.136,0.521-0.206l0.214-0.093l9.013,0.988c3.485-1.522,6.823-3.138,9.947-4.807l-5.822-2.497l1.522-0.895
		c2.47-1.429,4.767-2.924,6.836-4.446l0.214-0.147l10.909-0.748c1.976-1.562,3.752-3.164,5.288-4.767l-8.959-0.921l1.001-1.268
		C181.422,69.995,182.33,68.527,182.958,67.098z"/>
	<path id="XMLID_71_" fill="#231916" d="M142.598,89.461C138.112,91.337,141.622,90.17,142.598,89.461L142.598,89.461z"/>
	<path id="XMLID_30_" fill="#231916" d="M34.633,81.897c2.38-5.654,10.118-11.56,20.507-15.769l-6.536,0.633l-19.55,14.419
		l-1.377,14.73c1.643-3.867,3.777-7.176,6.146-10.009C33.794,84.602,34.057,83.265,34.633,81.897z"/>
	<path id="XMLID_65_" fill="#231916" d="M36.229,82.587c-0.147,0.35-0.263,0.695-0.364,1.039
		c9.645-9.973,21.817-12.952,21.817-12.952l0.01-3.632C46.773,71.11,38.572,77.02,36.229,82.587z"/>
	<path id="XMLID_43_" fill="#231916" d="M35.594,64.704l0.562,3.067l0.222,0.141c0.649-0.505,1.374-1.061,2.199-1.665L35.594,64.704
		z"/>
	<path id="XMLID_76_" fill="#231916" d="M40.783,66.849c-1.064,0.752-1.994,1.448-2.81,2.076l1.56,0.99l7.987-4.55l-9.436-1.373
		l3.893,2.014L40.783,66.849z"/>
	<path id="XMLID_47_" fill="#231916" d="M26.445,79.193c-0.917,1.167-1.665,2.329-2.248,3.469l0.521,0.062l5.943-5.332l-6.888,0.155
		l3.669,0.376L26.445,79.193z"/>
	<path id="XMLID_98_" fill="#231916" d="M24.106,79.368l-7.266-0.745l0.745,3.257l4.659,0.551l0.092-0.019
		C22.806,81.406,23.398,80.388,24.106,79.368z"/>
	<path id="XMLID_70_" fill="#231916" d="M22.924,90.461c0.26,1.142,0.737,2.237,1.398,3.268l-2.604-6.772l-9.148,3.507l10.185-0.748
		L22.924,90.461z"/>
	<path id="XMLID_100_" fill="#231916" d="M21.387,91.6l-9.335,0.685c0.421,2.248,1.093,3.536,1.093,3.536l6.696-0.737l2.619-0.981
		C22.003,93.299,21.645,92.462,21.387,91.6z"/>
	<polygon id="XMLID_103_" fill="#231916" points="22.299,98.053 25.594,97.038 24.851,95.105 21.416,96.392 	"/>
	<path id="XMLID_105_" fill="#FFFFFF" d="M25.168,94.986l-0.647-0.937c-0.072-0.105-0.132-0.214-0.2-0.32l0.529,1.376L25.168,94.986
		z"/>
	<path id="XMLID_114_" fill="#231916" d="M148.035,8.519v71.251c0,0.013,0.063,0.013,0.037,0.027
		c-0.067,0.027-0.062,0.053-0.129,0.08c-0.294,0.107-0.558,0.214-0.865,0.334c-0.053,0.027-0.106,0.04-0.159,0.067
		c-0.32,0.12-0.62,0.24-0.941,0.361c-0.04,0.013-0.076,0.027-0.116,0.04c-2.55,0.948-5.179,1.883-8.263,2.804
		c-0.013,0-0.026,0-0.039,0.013c-0.427,0.12-0.867,0.254-1.308,0.374c-0.04,0-0.067,0.013-0.107,0.027
		c-0.294,0.08-0.528,0.16-0.835,0.24c-0.107,0.027-0.274,0.067-0.274,0.093V22.114l-74-11.762V8.519H148.035z"/>
	<path id="XMLID_59_" fill="#231916" d="M183.836,79.98l-0.214,0.167L172.68,80.89c-1.637,1.187-3.407,2.361-5.282,3.502l3.871,1.66
		l3.496-2.122l9.755-0.54c2.65-2.094,1.448-1.141,4.952-4.314l0.566-4.766C188.27,76.227,186.201,78.131,183.836,79.98z"/>
	<path id="XMLID_42_" fill="#231916" d="M185.34,59.051l0.962-0.07l5.466-2.34l0.637-3.144l-8.138,3.048
		C184.723,57.347,185.082,58.185,185.34,59.051z"/>
	<path id="XMLID_29_" fill="#231916" d="M151.419,52.377l-0.008,3.835c1.025,0.082,10.464-0.434,17.899,5.467
		C168.828,57.267,165.969,53.669,151.419,52.377z"/>
</g>
<rect id="XMLID_51_" x="-19.856" y="-46.885" fill="none" stroke="#231916" stroke-miterlimit="10" width="724.964" height="252.487"/>
</svg>
